# xmcd CD database file
#
# Track frame offsets:
#	150
#	19232
#	37707
#	56382
#	76995
#	99355
#	120192
#	140827
#	161560
#	179420
#	198415
#	213157
#
# Disc length: 2988 seconds
#
# Revision: 9
# Processed by: cddbd v1.5.1PL2 Copyright (c) Steve Scherf et al.
# Submitted via: CDex 1.51
#
DISCID=930baa0c
DTITLE=松居慶子 - Walls of Akendora
DYEAR=2004
DGENRE=Jazz
TTITLE0=Overture for the City
TTITLE1=Crystal Shadow
TTITLE2=Mountain Shakedown
TTITLE3=Canvas
TTITLE4=Akendora's Clock
TTITLE5=Walking Through It
TTITLE6=Blue Butterfly
TTITLE7=Gentle Sands
TTITLE8=Walls of Akendora
TTITLE9=Bay of Destiny
TTITLE10=Walking Through It -solo piano-
TTITLE11=Gentles Sands -solo piano-
EXTD=YEAR: 2004
EXTT0=
EXTT1=
EXTT2=
EXTT3=
EXTT4=
EXTT5=
EXTT6=
EXTT7=
EXTT8=
EXTT9=
EXTT10=
EXTT11=
PLAYORDER=
